<svg width="22" height="21" viewBox="0 0 22 21" fill="none" xmlns="http://www.w3.org/2000/svg">
<g filter="url(#filter0_d_1_5558)">
<path d="M4.72687 18.208C4.96645 18.2092 5.27401 18.1561 5.64955 18.0486C6.02509 17.941 6.43209 17.792 6.87055 17.6015C7.31419 17.4162 7.75797 17.2023 8.20189 16.9597C8.65102 16.7171 9.06897 16.4614 9.45573 16.1925C9.54979 16.1305 9.63073 16.0892 9.69854 16.0687C9.77156 16.0482 9.84713 16.0382 9.92526 16.0386C9.9721 16.044 10.0138 16.0469 10.0502 16.047C10.0919 16.0472 10.1283 16.0474 10.1596 16.0476C11.2898 16.0532 12.3607 15.944 13.3722 15.7198C14.3889 15.501 15.3176 15.1801 16.1583 14.7572C17.0042 14.3291 17.7359 13.8093 18.3536 13.1978C18.9713 12.5811 19.4487 11.8803 19.786 11.0955C20.1284 10.3108 20.302 9.44964 20.3067 8.51215C20.3119 7.46008 20.0746 6.47451 19.5948 5.55544C19.1203 4.63119 18.455 3.82057 17.5991 3.12358C16.7432 2.4266 15.7485 1.87996 14.6151 1.48368C13.4868 1.08742 12.2717 0.88605 10.9696 0.879556C9.66755 0.873063 8.44784 1.06229 7.31049 1.44725C6.17835 1.83224 5.18087 2.36894 4.31805 3.05735C3.46044 3.74579 2.78715 4.54973 2.29818 5.46918C1.80924 6.38342 1.56215 7.36658 1.5569 8.41865C1.5527 9.26239 1.7075 10.0757 2.0213 10.8585C2.33514 11.6361 2.79769 12.3572 3.40897 13.0217C4.02025 13.6862 4.76738 14.2629 5.65037 14.7516C5.74386 14.8042 5.80087 14.8618 5.82139 14.9244C5.84191 14.987 5.83113 15.0598 5.78905 15.143C5.621 15.4182 5.43738 15.6855 5.23816 15.9449C5.03893 16.2095 4.84762 16.4508 4.66424 16.6686C4.48606 16.8865 4.34194 17.0655 4.23187 17.2055C4.02226 17.4597 3.96643 17.6886 4.06438 17.8922C4.1675 18.1011 4.38833 18.2063 4.72687 18.208Z" fill="white"/>
</g>
<defs>
<filter id="filter0_d_1_5558" x="0.258057" y="0.832825" width="21.3364" height="19.9526" filterUnits="userSpaceOnUse" color-interpolation-filters="sRGB">
<feFlood flood-opacity="0" result="BackgroundImageFix"/>
<feColorMatrix in="SourceAlpha" type="matrix" values="0 0 0 0 0 0 0 0 0 0 0 0 0 0 0 0 0 0 127 0" result="hardAlpha"/>
<feOffset dy="1.25"/>
<feGaussianBlur stdDeviation="0.625"/>
<feColorMatrix type="matrix" values="0 0 0 0 1 0 0 0 0 1 0 0 0 0 1 0 0 0 0.5 0"/>
<feBlend mode="normal" in2="BackgroundImageFix" result="effect1_dropShadow_1_5558"/>
<feBlend mode="normal" in="SourceGraphic" in2="effect1_dropShadow_1_5558" result="shape"/>
</filter>
</defs>
</svg>
