<svg width="14" height="16" viewBox="0 0 14 16" fill="none" xmlns="http://www.w3.org/2000/svg">
<g clip-path="url(#clip0_1_5788)">
<path d="M9.71701 13.2278C9.34323 14.7151 8.07979 15.3819 6.98585 15.3163C5.90858 15.2517 4.84522 14.5097 4.55032 13.2021C4.49723 13.2018 4.43887 13.2015 4.38052 13.2012C3.46617 13.1967 2.55183 13.1899 1.63746 13.1884C1.1794 13.1875 0.825794 13.0054 0.627363 12.588C0.433275 12.1794 0.508882 11.7994 0.781403 11.437C1.10649 11.0043 1.41059 10.5552 1.71819 10.1096C1.84592 9.92466 1.89216 9.71297 1.89285 9.48789C1.89672 8.27255 1.87865 7.05666 1.91542 5.84235C1.98362 3.6037 3.0382 1.97151 5.07691 1.04493C8.05757 -0.309574 11.6016 1.5057 12.2902 4.71208C12.3769 5.11529 12.4125 5.5358 12.4166 5.94869C12.4278 7.13077 12.414 8.31359 12.4028 9.49599C12.4001 9.78117 12.473 10.0325 12.6368 10.265C12.9461 10.7027 13.252 11.1434 13.5547 11.5858C13.7912 11.9319 13.8196 12.3028 13.6296 12.6735C13.439 13.0455 13.1178 13.2404 12.6996 13.2414C11.7633 13.2438 10.827 13.2343 9.89075 13.23C9.83197 13.2284 9.77273 13.2281 9.71701 13.2278ZM12.6834 12.183C12.3693 11.7252 12.0701 11.2823 11.7634 10.8446C11.4811 10.4409 11.3478 9.99706 11.3524 9.50436C11.3631 8.32239 11.3695 7.13997 11.3688 5.95795C11.3688 5.69118 11.3495 5.42125 11.3092 5.15779C10.9565 2.85123 8.62809 1.2478 6.34719 1.73441C4.33597 2.16358 2.97496 3.8311 2.96208 5.88487C2.95462 7.02868 2.93795 8.17288 2.9498 9.31634C2.95599 9.92274 2.79319 10.4537 2.42793 10.9363C2.13908 11.3183 1.8747 11.7193 1.58791 12.1281C5.29094 12.1462 8.97204 12.1645 12.6834 12.183ZM8.59246 13.2306C7.61669 13.2257 6.64266 13.2209 5.66645 13.216C5.82889 13.8126 6.47422 14.2686 7.14203 14.2658C7.79535 14.2634 8.43646 13.8076 8.59246 13.2306Z" fill="black"/>
</g>
<defs>
<clipPath id="clip0_1_5788">
<rect width="13.2359" height="14.7298" fill="white" transform="translate(0.576904 0.558167) rotate(0.285738)"/>
</clipPath>
</defs>
</svg>
