<svg width="31" height="31" viewBox="0 0 31 31" fill="none" xmlns="http://www.w3.org/2000/svg">
<path d="M27.22 13.5517L26.2777 13.547L26.278 13.4985L15.7502 13.446L15.7269 18.125L22.3377 18.1579C21.3597 20.8769 18.7584 22.8192 15.7035 22.804C11.8276 22.7846 8.70071 19.6264 8.72004 15.7505C8.73937 11.8745 11.8976 8.74762 15.7735 8.76695C17.5627 8.77587 19.187 9.45893 20.4209 10.5676L23.746 7.27546C21.6666 5.31799 18.878 4.1033 15.7969 4.08794C9.33693 4.05572 4.07324 9.26717 4.04103 15.7271C4.00881 22.1871 9.22025 27.4508 15.6802 27.483C22.1402 27.5152 27.4038 22.3037 27.4361 15.8438C27.44 15.0595 27.3631 14.2935 27.22 13.5517Z" fill="#FFC107"/>
<path d="M5.4162 10.2892L9.24537 13.1269C10.2981 10.5575 12.8257 8.75224 15.7728 8.76693C17.562 8.77586 19.1863 9.45892 20.4202 10.5676L23.7453 7.27545C21.6659 5.31798 18.8773 4.10329 15.7962 4.08793C11.3032 4.06552 7.39407 6.58269 5.4162 10.2892Z" fill="#FF3D00"/>
<path d="M15.6803 27.4833C18.7018 27.4984 21.453 26.3558 23.5381 24.4858L19.933 21.4041C18.7145 22.3213 17.2287 22.8132 15.7036 22.8043C12.6611 22.7892 10.0874 20.8362 9.12767 18.124L5.29845 21.044C7.2155 24.8419 11.1341 27.4607 15.6803 27.4833Z" fill="#4CAF50"/>
<path d="M27.22 13.5517L26.2778 13.547L26.278 13.4984L15.7502 13.4459L15.7269 18.1249L22.3378 18.1579C21.87 19.4519 21.0333 20.5805 19.9311 21.4043L19.9329 21.4032L23.538 24.4848C23.2807 24.7163 27.4069 21.6925 27.4361 15.8438C27.44 15.0594 27.3631 14.2934 27.22 13.5517Z" fill="#1976D2"/>
</svg>
