<svg width="19" height="18" viewBox="0 0 19 18" fill="none" xmlns="http://www.w3.org/2000/svg">
<path d="M9.31575 17.973C10.5403 17.9791 11.6929 17.7505 12.7733 17.2871C13.8596 16.8238 14.8179 16.1811 15.6482 15.3591C16.4785 14.537 17.1307 13.5881 17.6048 12.5123C18.0789 11.4307 18.3191 10.2776 18.3252 9.05299C18.3313 7.82839 18.1027 6.67587 17.6393 5.59542C17.176 4.50912 16.5333 3.55082 15.7112 2.72054C14.8892 1.89026 13.9373 1.23804 12.8557 0.763891C11.7741 0.28974 10.621 0.0496118 9.39637 0.0435047C8.17178 0.0373975 7.01633 0.266013 5.93002 0.729351C4.84957 1.19272 3.8942 1.83542 3.06392 2.65746C2.2395 3.47954 1.59021 4.43139 1.11606 5.51302C0.641943 6.58879 0.401829 7.73898 0.395722 8.96357C0.389614 10.1882 0.61823 11.3436 1.08157 12.4299C1.54494 13.5104 2.18764 14.4657 3.00968 15.296C3.83172 16.1263 4.78063 16.7785 5.8564 17.2526C6.93804 17.7268 8.09115 17.9669 9.31575 17.973ZM5.0714 8.99568C5.07254 8.76717 5.1467 8.58296 5.29389 8.44307C5.4411 8.29732 5.62896 8.22501 5.85747 8.22615L8.60842 8.23987L8.62214 5.48893C8.62328 5.26042 8.69159 5.07326 8.82709 4.92744C8.96844 4.78166 9.15044 4.70933 9.3731 4.71044C9.60161 4.71158 9.78581 4.78574 9.92571 4.93292C10.0715 5.08014 10.1438 5.268 10.1426 5.49651L10.1289 8.24745L12.8886 8.26122C13.1171 8.26236 13.3014 8.33652 13.4412 8.4837C13.587 8.62506 13.6593 8.80999 13.6582 9.0385C13.6571 9.26116 13.583 9.44243 13.4358 9.58232C13.2886 9.71636 13.1037 9.78282 12.8811 9.78171L10.1213 9.76794L10.1076 12.5277C10.1064 12.7562 10.0322 12.9433 9.88503 13.0891C9.74371 13.229 9.55879 13.2984 9.33027 13.2972C9.10762 13.2961 8.92633 13.2249 8.78641 13.0836C8.65238 12.9364 8.58593 12.7486 8.58707 12.5201L8.60083 9.76036L5.84989 9.74664C5.62138 9.7455 5.43422 9.67719 5.28841 9.54169C5.14263 9.40034 5.07029 9.21833 5.0714 8.99568Z" fill="#E1225B"/>
</svg>
