<svg width="21" height="21" viewBox="0 0 21 21" fill="none" xmlns="http://www.w3.org/2000/svg">
<g filter="url(#filter0_d_1_5555)">
<path d="M2.19593 12.6137C2.19156 13.4887 2.35165 14.2864 2.67619 15.0068C3.00075 15.7219 3.44322 16.2919 4.00361 16.7165C4.56921 17.1412 5.21138 17.3554 5.93012 17.359L7.25823 17.3656C6.54763 16.7735 6.0173 16.0651 5.66725 15.2404C5.31719 14.4158 5.1498 13.5165 5.16507 12.5426C5.17358 11.8812 5.24172 11.2721 5.3695 10.7155C5.50248 10.1588 5.6795 9.64928 5.90056 9.18684C6.12686 8.71921 6.38423 8.28559 6.67269 7.88598L5.66489 7.88096C5.01385 7.87771 4.42688 8.08312 3.90398 8.49718C3.38107 8.91125 2.96679 9.4769 2.66112 10.1941C2.35546 10.9114 2.20039 11.7179 2.19593 12.6137ZM6.41498 12.5644C6.40577 13.3665 6.5505 14.1094 6.84918 14.7932C7.15309 15.4718 7.58765 16.0625 8.15286 16.5653C8.71804 17.0734 9.39837 17.4674 10.1939 17.7474C10.9945 18.0327 11.8844 18.1803 12.8636 18.1904L13.9964 18.1961C14.5172 18.2039 14.9808 18.1906 15.3872 18.1561C15.7988 18.1217 16.1298 18.0765 16.3801 18.0205C16.7816 17.9235 17.1184 17.7455 17.3906 17.4864C17.6627 17.2326 17.7997 16.8999 17.8018 16.4885C17.8025 16.3426 17.7876 16.2097 17.7569 16.0898C17.7314 15.9751 17.6955 15.8707 17.6491 15.7768C17.6026 15.6984 17.6133 15.6438 17.6812 15.6129C17.9631 15.4684 18.1907 15.2716 18.3638 15.0225C18.5369 14.7734 18.6243 14.4873 18.6259 14.1644C18.6277 13.7946 18.5408 13.4765 18.365 13.21C18.303 13.1211 18.3189 13.0509 18.413 12.9993C18.6063 12.8648 18.7609 12.6807 18.8767 12.4469C18.9976 12.2131 19.0588 11.9556 19.0602 11.6744C19.0612 11.466 19.031 11.268 18.9694 11.0802C18.9131 10.8872 18.8357 10.7305 18.7374 10.6102C18.67 10.5422 18.6756 10.4719 18.7541 10.3994C18.8901 10.2751 18.9925 10.1141 19.0611 9.91654C19.1351 9.71899 19.1726 9.50303 19.1738 9.26866C19.1753 8.96658 19.1037 8.69018 18.9591 8.43945C18.8198 8.18875 18.628 7.98988 18.384 7.84283C18.1399 7.69577 17.8642 7.62148 17.557 7.61995L14.6117 7.60526C14.2836 7.60362 14.0235 7.52941 13.8315 7.38262C13.6396 7.23062 13.5442 7.02701 13.5455 6.77181C13.5468 6.50619 13.6187 6.18883 13.7612 5.81975C13.9037 5.44545 14.0671 5.04783 14.2515 4.62687C14.4412 4.20072 14.6074 3.77186 14.7501 3.34027C14.8981 2.90871 14.9731 2.50283 14.975 2.12263C14.9771 1.69555 14.8512 1.35377 14.5973 1.0973C14.3485 0.840844 14.0315 0.711657 13.6461 0.709735C13.3284 0.70815 13.0675 0.803205 12.8634 0.994898C12.6593 1.18659 12.4574 1.46944 12.2576 1.84345C11.6371 3.03308 10.9467 4.1234 10.1866 5.11441C9.42639 6.10542 8.72652 7.01861 8.08692 7.85397C7.70423 8.35207 7.38929 8.84009 7.14211 9.31803C6.90017 9.79079 6.72059 10.2899 6.60339 10.8154C6.48621 11.3356 6.4234 11.9186 6.41498 12.5644Z" fill="white"/>
</g>
<defs>
<filter id="filter0_d_1_5555" x="0.918457" y="0.652954" width="19.5479" height="20.0765" filterUnits="userSpaceOnUse" color-interpolation-filters="sRGB">
<feFlood flood-opacity="0" result="BackgroundImageFix"/>
<feColorMatrix in="SourceAlpha" type="matrix" values="0 0 0 0 0 0 0 0 0 0 0 0 0 0 0 0 0 0 127 0" result="hardAlpha"/>
<feOffset dy="1.25"/>
<feGaussianBlur stdDeviation="0.625"/>
<feColorMatrix type="matrix" values="0 0 0 0 1 0 0 0 0 1 0 0 0 0 1 0 0 0 0.5 0"/>
<feBlend mode="normal" in2="BackgroundImageFix" result="effect1_dropShadow_1_5555"/>
<feBlend mode="normal" in="SourceGraphic" in2="effect1_dropShadow_1_5555" result="shape"/>
</filter>
</defs>
</svg>
