<svg width="19" height="7" viewBox="0 0 19 7" fill="none" xmlns="http://www.w3.org/2000/svg">
<g filter="url(#filter0_d_1_5561)">
<path d="M3.24185 4.34402C3.57518 4.34568 3.87767 4.26385 4.14933 4.09854C4.4262 3.93325 4.64865 3.71561 4.81666 3.44561C4.9847 3.1704 5.06953 2.87134 5.07114 2.54843C5.07368 2.03802 4.90134 1.61007 4.5541 1.26458C4.21209 0.913916 3.78067 0.737283 3.25985 0.734686C2.93173 0.73305 2.62924 0.812271 2.3524 0.972351C2.08077 1.13246 1.86093 1.35011 1.69289 1.62532C1.53008 1.89534 1.44785 2.19702 1.44618 2.53035C1.44457 2.85326 1.52381 3.15314 1.68389 3.42998C1.8492 3.70165 2.06686 3.92148 2.33686 4.0895C2.61206 4.25754 2.91373 4.34238 3.24185 4.34402ZM9.14802 4.37347C9.47094 4.37508 9.76822 4.29323 10.0399 4.12792C10.3168 3.96263 10.5392 3.74498 10.7072 3.47499C10.8753 3.19978 10.9601 2.90072 10.9617 2.57781C10.9642 2.0674 10.7919 1.63945 10.4446 1.29396C10.1026 0.943293 9.67643 0.766686 9.16602 0.764141C8.8327 0.762478 8.52761 0.841687 8.25077 1.00177C7.97913 1.16187 7.7619 1.37954 7.59906 1.65477C7.43626 1.9248 7.35402 2.22648 7.35236 2.55981C7.35075 2.88272 7.42998 3.1826 7.59006 3.45944C7.75017 3.73107 7.96522 3.9509 8.23522 4.11892C8.51043 4.28696 8.8147 4.37181 9.14802 4.37347ZM15.0464 4.40289C15.3693 4.4045 15.6666 4.32265 15.9382 4.15733C16.2151 3.99204 16.4376 3.7744 16.6056 3.5044C16.7736 3.22919 16.8584 2.93013 16.8601 2.60722C16.8626 2.09681 16.6903 1.66886 16.343 1.32338C16.001 0.972709 15.5748 0.796102 15.0644 0.793557C14.7311 0.791894 14.426 0.871103 14.1491 1.03118C13.8723 1.19126 13.6498 1.40891 13.4818 1.68411C13.319 1.95414 13.2368 2.25581 13.2351 2.58914C13.2335 2.91206 13.3127 3.21193 13.4728 3.48878C13.6381 3.76044 13.8584 3.98029 14.1336 4.14833C14.4088 4.31637 14.7131 4.40122 15.0464 4.40289Z" fill="white"/>
</g>
<defs>
<filter id="filter0_d_1_5561" x="0.187256" y="0.725708" width="17.9319" height="6.18616" filterUnits="userSpaceOnUse" color-interpolation-filters="sRGB">
<feFlood flood-opacity="0" result="BackgroundImageFix"/>
<feColorMatrix in="SourceAlpha" type="matrix" values="0 0 0 0 0 0 0 0 0 0 0 0 0 0 0 0 0 0 127 0" result="hardAlpha"/>
<feOffset dy="1.25"/>
<feGaussianBlur stdDeviation="0.625"/>
<feColorMatrix type="matrix" values="0 0 0 0 1 0 0 0 0 1 0 0 0 0 1 0 0 0 0.5 0"/>
<feBlend mode="normal" in2="BackgroundImageFix" result="effect1_dropShadow_1_5561"/>
<feBlend mode="normal" in="SourceGraphic" in2="effect1_dropShadow_1_5561" result="shape"/>
</filter>
</defs>
</svg>
